<?xml version="1.0" encoding="utf-8"?>
<!-- Generator: Adobe Illustrator 22.0.1, SVG Export Plug-In . SVG Version: 6.00 Build 0)  -->
<svg version="1.1" id="Layer_1" xmlns="http://www.w3.org/2000/svg" xmlns:xlink="http://www.w3.org/1999/xlink" x="0px" y="0px"
	 viewBox="0 0 40 40" style="enable-background:new 0 0 40 40;" xml:space="preserve">
<g>
	<path d="M16.5,20.4l0.2,1h-1.4v1.2l0.4,0.2c0.1,0.1,0.2,0.1,0.3,0.1c0.1,0,0.1,0,0.2-0.1l0.2-0.2l0.2,0.2l-1.4,1.2l-1.4-0.9
		l0.4-0.5v-1.2h-2.8L11,20.3l3.3-4.4c0.3,0,0.5,0.2,0.7,0.4s0.3,0.6,0.3,1v3.1H16.5z M14.1,20.4V18c0-0.2,0-0.4-0.1-0.5
		c-0.1-0.1-0.1-0.2-0.2-0.3l-2.4,3.3H14.1z"/>
	<path d="M19.9,15.9c0.9,0.3,1.6,0.8,2.1,1.5c0.5,0.7,0.7,1.5,0.7,2.4c0,0.9-0.2,1.7-0.7,2.4c-0.5,0.7-1.1,1.3-1.9,1.9
		c-0.6-0.1-1.1-0.4-1.5-0.7c-0.5-0.4-0.8-0.8-1-1.4c-0.2-0.5-0.4-1.1-0.4-1.7c0-0.8,0.2-1.7,0.7-2.5C18.5,17,19.1,16.4,19.9,15.9z
		 M18.9,17c-0.5,0.6-0.8,1.4-0.8,2.2c0,0.6,0.1,1.2,0.4,1.7s0.6,1,1.1,1.3c0.5,0.4,1,0.6,1.5,0.6c0.3-0.4,0.5-0.7,0.6-1.1
		c0.1-0.3,0.2-0.7,0.2-1.1c0-0.6-0.1-1.1-0.3-1.6s-0.6-0.9-1-1.3S19.5,17.2,18.9,17z"/>
	<path d="M28.7,20.4l0.2,1h-1.4v1.2l0.4,0.2c0.1,0.1,0.2,0.1,0.3,0.1c0.1,0,0.1,0,0.2-0.1l0.2-0.2l0.2,0.2l-1.4,1.2l-1.4-0.9
		l0.4-0.5v-1.2h-2.8l-0.2-1.1l3.3-4.4c0.3,0,0.5,0.2,0.7,0.4s0.3,0.6,0.3,1v3.1H28.7z M26.3,20.4V18c0-0.2,0-0.4-0.1-0.5
		c-0.1-0.1-0.1-0.2-0.2-0.3l-2.4,3.3H26.3z"/>
</g>
</svg>
