<?xml version="1.0" encoding="utf-8"?>
<!-- Generator: Adobe Illustrator 22.0.1, SVG Export Plug-In . SVG Version: 6.00 Build 0)  -->
<svg version="1.1" id="Layer_1" xmlns="http://www.w3.org/2000/svg" xmlns:xlink="http://www.w3.org/1999/xlink" x="0px" y="0px"
	 viewBox="0 0 360 360" style="enable-background:new 0 0 360 360;" xml:space="preserve">
<style type="text/css">
	.st0{fill:#CCCCCC;}
</style>
<g>
	<g>
		<path class="st0" d="M180,282c-56.3,0-102-45.7-102-102S123.7,78,180,78s102,45.7,102,102S236.3,282,180,282z M180,91.3
			c-49,0-88.7,39.8-88.7,88.7s39.8,88.7,88.7,88.7s88.7-39.8,88.7-88.7S229,91.3,180,91.3z"/>
	</g>
	<g>
		<g>
			<path class="st0" d="M180,146l-51.1,42.1c0,0.1,0,0.1,0,0.3c0,0.1,0,0.2,0,0.3v42.6c0,1.5,0.6,2.9,1.7,4c1.1,1.1,2.5,1.7,4,1.7
				h34.1v-34.1h22.7V237h34.1c1.5,0,2.9-0.6,4-1.7c1.1-1.1,1.7-2.5,1.7-4v-42.6c0-0.2,0-0.4-0.1-0.5L180,146z"/>
			<path class="st0" d="M250.6,178.5l-19.5-16.2v-36.2c0-0.8-0.3-1.5-0.8-2s-1.2-0.8-2-0.8h-17.1c-0.8,0-1.5,0.3-2,0.8
				s-0.8,1.2-0.8,2v17.3l-21.7-18.1c-1.9-1.5-4.1-2.3-6.8-2.3c-2.6,0-4.9,0.8-6.8,2.3l-63.9,53.2c-0.6,0.5-0.9,1.1-1,1.9
				c-0.1,0.8,0.1,1.5,0.6,2.1l5.5,6.6c0.5,0.5,1.1,0.9,1.9,1c0.7,0.1,1.4-0.1,2.1-0.6l61.5-51.3l61.5,51.3c0.5,0.4,1.1,0.6,1.9,0.6
				h0.3c0.8-0.1,1.4-0.4,1.9-1l5.5-6.6c0.5-0.6,0.7-1.3,0.6-2.1C251.5,179.6,251.2,179,250.6,178.5z"/>
		</g>
	</g>
</g>
</svg>
