<?xml version="1.0" encoding="utf-8"?>
<!-- Generator: Adobe Illustrator 22.0.1, SVG Export Plug-In . SVG Version: 6.00 Build 0)  -->
<svg version="1.1" id="Layer_1" xmlns="http://www.w3.org/2000/svg" xmlns:xlink="http://www.w3.org/1999/xlink" x="0px" y="0px"
	 viewBox="0 0 160 22" style="enable-background:new 0 0 160 22;" xml:space="preserve">
	 <style type="text/css">
	.st0{fill:#ffffff;}
</style>
<g>
	<path  class="st0" d="M17.8,0.5l0.4,0.3c-0.2,0.8-0.4,1.4-0.7,1.8c-0.3,0.4-0.7,0.8-1.3,1C15.7,3.9,15.1,4,14.3,4C14,4,13.5,4,12.9,4v11.9
		c1.2-0.4,2.1-0.8,2.9-1.4c0.7-0.6,1.4-1.4,2-2.5l0.5,0.2c-0.3,1.1-0.7,1.9-1.2,2.5c-0.7,1-1.7,1.8-2.8,2.5c-1.2,0.6-2.5,0.9-4,0.9
		c-1.5,0-2.9-0.3-4.2-0.9c-0.7-0.3-1.4-0.8-2.1-1.4c-0.6-0.6-1.1-1.3-1.5-2.2c-0.4-0.9-0.6-1.8-0.6-2.9c0-1.1,0.2-2.1,0.6-3.1
		c0.4-1,1.1-1.9,1.9-2.9C4.9,4.3,5.6,3.7,6.6,3L5.1,2.9C4.6,2.9,4,3,3.3,3.2C2.6,3.5,2.1,3.9,1.8,4.3c-0.4,0.4-0.7,1.1-1,2L0.3,6
		c0.3-1.1,0.6-2,1-2.6c0.6-0.8,1.3-1.5,2.2-1.9c0.9-0.5,2-0.7,3.2-0.7c0.8,0,2.3,0.2,4.4,0.5c2.1,0.3,3.5,0.5,4.3,0.5
		c0.5,0,0.9-0.1,1.2-0.2C17,1.4,17.3,1.1,17.8,0.5z M8,3.1L7.3,3C6.3,3.9,5.5,4.9,5,5.8C4.3,7,4,8.2,4,9.5c0,2.2,0.9,4,2.7,5.4
		c0.6-0.5,0.9-0.9,1.1-1.2S8,12.9,8,11.9V3.1z M12.4,3.8c-0.7-0.1-1.4-0.2-2-0.3v7.1c0,0.8,0,1.4-0.1,1.6c-0.1,0.2-0.2,0.5-0.5,0.8
		c-0.4,0.5-1.3,1.3-2.6,2.3c0.7,0.3,1.2,0.5,1.6,0.6c0.7,0.2,1.4,0.3,2,0.3c0.3,0,0.9,0,1.5-0.1V3.8z"/>
	<path  class="st0" d="M23,1.2l0.1,0.3c-0.6,0.4-1,0.7-1.2,1.2c-0.2,0.4-0.3,1.1-0.3,2v3.9l3.7-2.9c0.8,0.5,1.3,1,1.5,1.5
		c0.2,0.5,0.4,1.3,0.4,2.4v5.4c0,1-0.1,1.8-0.3,2.2c-0.3,0.8-1,1.5-1.9,2.2c-1.2,0.9-2.7,1.7-4.6,2.3l-0.2-0.4
		c1.5-0.6,2.6-1.2,3.1-1.7c0.6-0.5,1-1.1,1.2-1.6c0.1-0.4,0.2-1.6,0.2-3.4v-5c0-0.6-0.1-0.9-0.2-1.1c-0.2-0.3-0.5-0.6-0.9-0.9
		l-2,1.6v6.6l0.8,0.8l-2.1,1.7l-2.1-1.7l0.9-0.9V4.8c0-1-0.1-1.6-0.3-2c-0.2-0.4-0.5-0.7-1-1l0.1-0.3c0.4,0.1,0.8,0.3,1,0.4
		c0.3,0.1,0.6,0.4,1,0.8c0.5-0.5,0.9-0.8,1.4-1C21.9,1.4,22.4,1.3,23,1.2z"/>
	<path  class="st0" d="M33.1,5.5l3.3,3.9l-5.3,3.7v2.2l2.7,1.1l1.9-1.3l0.3,0.4l-3.8,2.7c-0.8-0.4-1.4-0.7-1.9-0.9c-0.5-0.2-1.2-0.4-2.2-0.6v-0.3
		c0.3-0.2,0.4-0.4,0.5-0.6c0.1-0.2,0.1-0.7,0.1-1.5V7.5c0.7-0.3,1.4-0.5,1.8-0.7C30.9,6.6,31.8,6.2,33.1,5.5z M31.3,6.9L31.1,7v5.4
		l3.1-2.2L31.3,6.9z"/>
	<path  class="st0" d="M48.1,0.5l5.3,1.8l0.4-0.7c0.1-0.3,0.2-0.4,0.3-0.5C54.2,1,54.2,1,54.3,1c0.1,0,0.1,0,0.2,0.1c0.1,0.1,0.1,0.1,0.1,0.2
		c0,0.1-0.1,0.3-0.3,0.7l-2.6,4.4l2-0.1c0.6,0,1.3,0.1,2.1,0.3c0.8,0.2,1.5,0.5,2.1,0.9c0.6,0.4,1,0.9,1.4,1.5
		c0.3,0.6,0.5,1.2,0.5,1.9c0,1.2-0.5,2.5-1.6,3.7c-1,1.2-2.9,2.5-5.6,3.8c-0.9-0.3-2-0.7-3.3-1.1c-2.2,1-4,1.5-5.5,1.5
		c-1,0-1.8-0.2-2.3-0.7c-0.5-0.4-0.8-1-0.8-1.5c0-0.6,0.3-1.2,1-1.7c0.7-0.5,1.6-0.8,2.9-0.8c0.5,0,1.1,0.1,1.9,0.2l1-1.7l-1.7,0.1
		c-0.4,0-1,0-1.7-0.2c-0.7-0.1-1.3-0.3-1.7-0.6c-0.4-0.3-0.8-0.6-1-1c-0.2-0.4-0.3-0.8-0.3-1.3c0-0.7,0.2-1.3,0.7-1.9
		c0.3-0.3,0.8-0.7,1.6-0.9l0-0.1c0-0.7,0.3-1.6,1-2.5C45.2,3,46.4,1.9,48.1,0.5z M48.7,16.8c-2-0.7-3.6-1-4.8-1
		c-0.6,0-1.2,0.1-1.5,0.4c-0.3,0.2-0.4,0.4-0.4,0.7c0,0.3,0.1,0.5,0.4,0.7c0.4,0.3,1,0.4,1.8,0.4C45.3,18,46.8,17.6,48.7,16.8z
		 M49.9,8.5c-1,0.1-2,0.2-3,0.2c-1.1,0-1.8-0.1-2.3-0.4c-0.4-0.3-0.8-0.6-1-1.2C43,7.5,42.7,8,42.7,8.5c0,0.5,0.2,0.9,0.7,1.2
		c0.6,0.4,1.6,0.6,3,0.6c0.7,0,1.5-0.1,2.5-0.2L49.9,8.5z M52.3,4.1c-1.2-0.6-2.2-1-2.9-1.2c-0.7-0.2-1.3-0.3-1.8-0.3
		c-0.7,0-1.3,0.2-1.8,0.6c-0.5,0.4-0.7,0.9-0.7,1.5c0,0.6,0.2,1,0.6,1.4c0.4,0.4,1,0.5,1.8,0.5c0.5,0,1.7-0.1,3.6-0.2L52.3,4.1z
		 M47.2,14.2c0.7,0.2,1.3,0.3,1.8,0.5c0.5,0.1,1.3,0.4,2.5,0.8c1.9-0.9,2.9-1.7,2.9-2.5c0-0.3-0.1-0.5-0.3-0.7
		c-0.2-0.2-0.5-0.3-0.9-0.3c-0.4,0-0.9,0-1.6,0.1c-1.7,0.2-2.8,0.3-3.4,0.3L47.2,14.2z M49.6,10.1c1.9-0.2,3.2-0.3,3.9-0.3
		c1,0,1.8,0.2,2.3,0.7c0.5,0.5,0.8,1,0.8,1.6c0,0.6-0.3,1.1-0.8,1.6c-0.5,0.5-1.6,1.2-3.3,1.9l2.4,0.6c1-0.6,1.8-1.3,2.4-2.1
		c0.6-0.7,0.8-1.6,0.8-2.4c0-0.6-0.2-1.2-0.5-1.7c-0.4-0.6-0.9-1-1.6-1.3c-0.7-0.3-1.6-0.5-2.5-0.5c-0.8,0-1.7,0.1-2.9,0.2
		L49.6,10.1z"/>
	<path  class="st0" d="M60.2,6.8l3.3-4.1h0.3L63.7,6h2.4v1.3h-2.4v8l1.3,1l0.8-0.6l0.3,0.4l-2.6,2.1c-0.9-0.9-1.9-1.5-3-1.8v-0.2
		c0.3-0.2,0.5-0.4,0.6-0.7c0.1-0.3,0.2-0.7,0.2-1.3V7.4h-1.1V6.8z"/>
	<path  class="st0" d="M72.7,5.5l1.8,2.1l-1.8,1.6l-1.5-1.9L70,8.5v6.9l1.3,1l1.2-1l0.3,0.4l-3,2.4c-0.6-0.6-1.2-1-1.6-1.2
		c-0.4-0.3-0.9-0.4-1.4-0.6v-0.3c0.3-0.2,0.6-0.5,0.7-0.7c0.1-0.2,0.2-0.7,0.2-1.4V9.1c0-0.6-0.1-1-0.2-1.2
		c-0.1-0.2-0.3-0.3-0.4-0.3c-0.2,0-0.4,0.2-0.7,0.5L66,7.7l2.5-2.1c0.7,0.5,1.1,1,1.4,1.3C70,7.1,70,7.4,70,7.9L72.7,5.5z"/>
	<path  class="st0" d="M79.6,5.5L83,9.4l-5.3,3.7v2.2l2.7,1.1l1.9-1.3l0.3,0.4l-3.8,2.7c-0.8-0.4-1.4-0.7-1.9-0.9c-0.5-0.2-1.2-0.4-2.2-0.6v-0.3
		c0.3-0.2,0.4-0.4,0.5-0.6c0.1-0.2,0.1-0.7,0.1-1.5V7.5C76,7.3,76.7,7,77.1,6.8C77.5,6.6,78.3,6.2,79.6,5.5z M77.8,6.9L77.7,7v5.4
		l3.1-2.2L77.8,6.9z"/>
	<path  class="st0" d="M88,5.5l3.3,3.9l-5.3,3.7v2.2l2.7,1.1l1.9-1.3l0.3,0.4l-3.8,2.7c-0.8-0.4-1.4-0.7-1.9-0.9c-0.5-0.2-1.2-0.4-2.2-0.6v-0.3
		c0.3-0.2,0.4-0.4,0.5-0.6c0.1-0.2,0.1-0.7,0.1-1.5V7.5C84.4,7.3,85,7,85.5,6.8C85.9,6.6,86.7,6.2,88,5.5z M86.2,6.9L86.1,7v5.4
		l3.1-2.2L86.2,6.9z"/>
	<path  class="st0" d="M90.9,6.8l3.3-4.1h0.3L94.5,6h2.4v1.3h-2.4v8l1.3,1l0.8-0.6l0.3,0.4l-2.6,2.1c-0.9-0.9-1.9-1.5-3-1.8v-0.2
		c0.3-0.2,0.5-0.4,0.6-0.7c0.1-0.3,0.2-0.7,0.2-1.3V7.4h-1.1V6.8z"/>
	<path  class="st0" d="M119.3,0.5l0.4,0.3c-0.2,0.8-0.4,1.4-0.7,1.8c-0.3,0.4-0.7,0.8-1.3,1c-0.6,0.3-1.2,0.4-1.9,0.4c-0.4,0-0.9,0-1.4-0.1v11.9
		c1.2-0.4,2.1-0.8,2.9-1.4c0.7-0.6,1.4-1.4,2-2.5l0.5,0.2c-0.3,1.1-0.7,1.9-1.2,2.5c-0.7,1-1.7,1.8-2.8,2.5c-1.2,0.6-2.5,0.9-4,0.9
		c-1.5,0-2.9-0.3-4.2-0.9c-0.7-0.3-1.4-0.8-2.1-1.4c-0.6-0.6-1.1-1.3-1.5-2.2c-0.4-0.9-0.6-1.8-0.6-2.9c0-1.1,0.2-2.1,0.6-3.1
		c0.4-1,1.1-1.9,1.9-2.9c0.5-0.6,1.3-1.2,2.3-1.9l-1.5-0.1c-0.6,0-1.2,0.1-1.8,0.3c-0.7,0.3-1.2,0.6-1.6,1.1c-0.4,0.4-0.7,1.1-1,2
		L101.8,6c0.3-1.1,0.6-2,1-2.6c0.6-0.8,1.3-1.5,2.2-1.9c0.9-0.5,2-0.7,3.2-0.7c0.8,0,2.3,0.2,4.4,0.5c2.1,0.3,3.5,0.5,4.3,0.5
		c0.5,0,0.9-0.1,1.2-0.2C118.5,1.4,118.9,1.1,119.3,0.5z M109.5,3.1L108.8,3c-1.1,0.9-1.8,1.8-2.3,2.7c-0.7,1.2-1,2.5-1,3.8
		c0,2.2,0.9,4,2.7,5.4c0.6-0.5,0.9-0.9,1.1-1.2s0.2-0.9,0.2-1.8V3.1z M113.9,3.8c-0.7-0.1-1.4-0.2-2-0.3v7.1c0,0.8,0,1.4-0.1,1.6
		c-0.1,0.2-0.2,0.5-0.5,0.8c-0.4,0.5-1.3,1.3-2.6,2.3c0.7,0.3,1.2,0.5,1.6,0.6c0.7,0.2,1.4,0.3,2,0.3c0.3,0,0.9,0,1.5-0.1V3.8z"/>
	<path  class="st0" d="M122,5.5l2.1,1.7l-0.9,0.9v6.4c0,0.7,0.1,1.1,0.2,1.3c0.1,0.2,0.2,0.3,0.4,0.3c0.1,0,0.2,0,0.2-0.1
		c0.1-0.1,0.3-0.2,0.6-0.5l0.3,0.4l-2.5,2.1c-0.6-0.4-1-0.9-1.2-1.3c-0.2-0.4-0.3-1.1-0.3-2.1V8.2L120,7.3L122,5.5z M122.9,1.5h1.5
		l-1.6,2.6h-0.5L122.9,1.5z"/>
	<path  class="st0" d="M141,6.2l0.3,0.3c-0.5,0.4-0.8,0.7-0.9,0.9c-0.2,0.2-0.3,0.5-0.3,0.7c0,0.2-0.1,0.7-0.1,1.5v4.9c0,0.6,0.1,1.1,0.2,1.3
		s0.2,0.3,0.4,0.3c0.2,0,0.4-0.2,0.8-0.5l0.3,0.4l-2.6,2.1c-0.6-0.5-1-0.8-1.1-1.1c-0.3-0.4-0.4-0.9-0.4-1.4V8.5l-1.2-1l-1.9,1.8
		v6.4l0.9,1l-2.1,1.6l-2.1-1.6l0.9-1V9.7c0-0.7-0.1-1.1-0.2-1.3c-0.1-0.3-0.5-0.6-1-1L129.1,9v6.6l0.9,1l-2.1,1.6l-2.1-1.6l0.9-1
		V9.3c0-0.7-0.1-1.1-0.2-1.4c-0.1-0.2-0.2-0.3-0.4-0.3c-0.1,0-0.4,0.2-0.8,0.5l-0.3-0.4l2.5-2.1c0.5,0.4,0.9,0.7,1.1,0.9
		c0.2,0.2,0.3,0.5,0.4,0.8c0,0.2,0.1,0.6,0.1,1.2l3.5-2.9c0.8,0.6,1.3,1.1,1.5,1.5c0.2,0.4,0.4,0.9,0.4,1.5l3.3-3.1l1.9,1.8L141,6.2
		z"/>
	<path  class="st0" d="M147,5.5l3.3,3.9l-5.3,3.7v2.2l2.7,1.1l1.9-1.3l0.3,0.4l-3.8,2.7c-0.8-0.4-1.4-0.7-1.9-0.9c-0.5-0.2-1.2-0.4-2.2-0.6v-0.3
		c0.3-0.2,0.4-0.4,0.5-0.6c0.1-0.2,0.1-0.7,0.1-1.5V7.5c0.7-0.3,1.4-0.5,1.8-0.7C144.8,6.6,145.7,6.2,147,5.5z M145.2,6.9L145,7v5.4
		l3.1-2.2L145.2,6.9z"/>
	<path  class="st0" d="M156.4,9.9l2.7,1.4v5c-0.7,0.1-1.3,0.2-1.8,0.5c-0.5,0.3-1.1,0.7-1.8,1.3c-0.6-0.3-1.1-0.6-1.5-0.7
		c-0.4-0.1-0.9-0.2-1.4-0.2c-0.7,0-1.4,0.2-2,0.7c-0.2,0.2-0.4,0.2-0.5,0.2c-0.1,0-0.2,0-0.3-0.1c-0.1-0.1-0.1-0.2-0.1-0.3
		c0-0.1,0.1-0.2,0.2-0.4c0.1-0.1,0.3-0.3,0.5-0.5l1.1-1.3l1.5-2l-2.6-1.4V7.7c0.8-0.3,1.5-0.5,1.9-0.8c0.5-0.3,0.9-0.7,1.3-1.3
		c1,0.4,1.8,0.7,2.4,0.9c0.4,0.1,0.9,0.2,1.3,0.2c0.4,0,0.8-0.1,1-0.3c0.2-0.2,0.4-0.4,0.4-0.6c0-0.1-0.1-0.3-0.2-0.4
		c-0.3-0.3-0.5-0.5-0.5-0.8c0-0.2,0.1-0.4,0.2-0.6c0.1-0.1,0.3-0.2,0.4-0.2c0.2,0,0.4,0.1,0.6,0.3c0.2,0.2,0.3,0.5,0.3,0.8
		c0,0.3-0.1,0.7-0.2,1c-0.1,0.3-0.4,0.7-0.8,1.3L156.4,9.9z M154.9,11.8l-2.9,3.8c0.3-0.1,0.7-0.2,1-0.3c0.3-0.1,0.6-0.1,0.8-0.1
		c0.9,0,1.8,0.3,2.8,0.9v-3.4L154.9,11.8z M152.9,10.8l1.6,0.8l2.6-3.4c-0.5,0.2-1,0.2-1.4,0.2c-1,0-1.9-0.3-2.8-1V10.8z"/>
</g>
</svg>
