<?xml version="1.0" encoding="utf-8"?>
<!-- Generator: Adobe Illustrator 22.0.1, SVG Export Plug-In . SVG Version: 6.00 Build 0)  -->
<svg version="1.1" id="Layer_1" xmlns="http://www.w3.org/2000/svg" xmlns:xlink="http://www.w3.org/1999/xlink" x="0px" y="0px"
	 viewBox="0 0 40 16" style="enable-background:new 0 0 40 16;" xml:space="preserve">
<g>
	<path d="M7.1,2.8l2.6,0.9l0.2-0.3c0.1-0.1,0.1-0.2,0.2-0.2c0,0,0.1,0,0.1,0c0,0,0.1,0,0.1,0c0,0,0,0.1,0,0.1c0,0.1,0,0.2-0.1,0.3
		L8.9,5.7l1-0.1c0.3,0,0.7,0,1.1,0.1s0.8,0.2,1,0.5s0.5,0.4,0.7,0.7S13,7.5,13,7.8c0,0.6-0.3,1.2-0.8,1.8c-0.5,0.6-1.4,1.2-2.8,1.9
		c-0.5-0.2-1-0.4-1.6-0.5c-1.1,0.5-2,0.8-2.7,0.8c-0.5,0-0.9-0.1-1.2-0.3S3.5,11,3.5,10.7c0-0.3,0.2-0.6,0.5-0.8s0.8-0.4,1.5-0.4
		c0.3,0,0.6,0,0.9,0.1l0.5-0.8L6,8.8c-0.2,0-0.5,0-0.8-0.1S4.6,8.5,4.4,8.4S4,8.1,3.9,7.9S3.7,7.5,3.7,7.2c0-0.3,0.1-0.7,0.4-0.9
		C4.2,6.1,4.5,6,4.9,5.9l0-0.1C4.9,5.4,5,5,5.3,4.5S6.3,3.5,7.1,2.8z M7.4,10.9c-1-0.3-1.8-0.5-2.4-0.5c-0.3,0-0.6,0.1-0.8,0.2
		c-0.1,0.1-0.2,0.2-0.2,0.3c0,0.1,0.1,0.3,0.2,0.3c0.2,0.1,0.5,0.2,0.9,0.2C5.7,11.5,6.5,11.3,7.4,10.9z M8,6.8
		C7.5,6.8,7,6.9,6.5,6.9C6,6.9,5.6,6.8,5.4,6.7S5,6.4,4.9,6.1C4.6,6.3,4.5,6.5,4.5,6.8c0,0.2,0.1,0.4,0.3,0.6
		c0.3,0.2,0.8,0.3,1.5,0.3c0.3,0,0.7,0,1.3-0.1L8,6.8z M9.2,4.6C8.6,4.3,8.1,4.1,7.8,4C7.4,3.9,7.1,3.8,6.9,3.8
		C6.5,3.8,6.2,3.9,6,4.2C5.8,4.4,5.6,4.6,5.6,4.9c0,0.3,0.1,0.5,0.3,0.7s0.5,0.3,0.9,0.3c0.3,0,0.9,0,1.8-0.1L9.2,4.6z M6.7,9.6
		c0.4,0.1,0.7,0.2,0.9,0.2c0.2,0.1,0.6,0.2,1.2,0.4c0.9-0.4,1.4-0.8,1.4-1.3c0-0.1-0.1-0.2-0.2-0.3C10,8.5,9.8,8.5,9.7,8.5
		c-0.2,0-0.5,0-0.8,0.1C8,8.6,7.5,8.7,7.2,8.7L6.7,9.6z M7.8,7.6c0.9-0.1,1.6-0.1,1.9-0.1c0.5,0,0.9,0.1,1.1,0.3s0.4,0.5,0.4,0.8
		c0,0.3-0.1,0.5-0.4,0.8s-0.8,0.6-1.6,1l1.2,0.3c0.5-0.3,0.9-0.7,1.2-1c0.3-0.4,0.4-0.8,0.4-1.2c0-0.3-0.1-0.6-0.3-0.9
		c-0.2-0.3-0.4-0.5-0.8-0.7c-0.4-0.2-0.8-0.2-1.2-0.2c-0.4,0-0.9,0-1.5,0.1L7.8,7.6z"/>
	<path d="M18.1,6.2v4.4c-0.6,0.2-1,0.4-1.3,0.6c-0.2,0.1-0.4,0.3-0.6,0.4c-0.6-0.3-1-0.6-1.4-0.7c-0.3-0.1-0.6-0.2-1-0.2l-0.1-0.1
		c0.1-0.1,0.2-0.2,0.3-0.3c0.1-0.1,0.1-0.4,0.1-0.7V6.3c0.7-0.2,1.3-0.6,1.8-1C16.6,5.7,17.3,6,18.1,6.2z M15.4,10l1.5,0.6V6.9
		c-0.5-0.2-0.8-0.4-1-0.4c-0.1-0.1-0.3-0.1-0.5-0.1V10z"/>
	<path d="M22.5,5.3l0.9,1.1l-0.9,0.8l-0.7-0.9l-0.6,0.5v3.4l0.7,0.5l0.6-0.5l0.1,0.2l-1.5,1.2c-0.3-0.3-0.6-0.5-0.8-0.6
		c-0.2-0.1-0.5-0.2-0.7-0.3v-0.1c0.2-0.1,0.3-0.2,0.3-0.4S20,9.8,20,9.4V7c0-0.3,0-0.5-0.1-0.6c-0.1-0.1-0.1-0.1-0.2-0.1
		c-0.1,0-0.2,0.1-0.4,0.2l-0.1-0.2l1.2-1.1C20.7,5.6,21,5.8,21.1,6c0.1,0.1,0.1,0.3,0.1,0.5L22.5,5.3z"/>
	<path d="M27.3,5.3l0.9,1.1l-0.9,0.8l-0.7-0.9L26,6.7v3.4l0.7,0.5l0.6-0.5l0.1,0.2l-1.5,1.2c-0.3-0.3-0.6-0.5-0.8-0.6
		c-0.2-0.1-0.5-0.2-0.7-0.3v-0.1c0.2-0.1,0.3-0.2,0.3-0.4s0.1-0.4,0.1-0.7V7c0-0.3,0-0.5-0.1-0.6c-0.1-0.1-0.1-0.1-0.2-0.1
		c-0.1,0-0.2,0.1-0.4,0.2l-0.1-0.2l1.2-1.1c0.3,0.3,0.6,0.5,0.7,0.7C25.9,6.1,26,6.2,26,6.5L27.3,5.3z"/>
	<path d="M28.7,6.3l1.2-1c0.3,0.2,0.6,0.4,0.7,0.6s0.1,0.4,0.1,0.7v0.1l1.8-1.4c0.6,0.6,0.9,1.3,0.9,2c0,0.4-0.1,0.8-0.3,1.2
		s-0.5,0.8-0.9,1.1S31,10.4,30.1,11c-0.4,0.3-0.7,0.4-0.7,0.5c-0.2,0.1-0.3,0.3-0.4,0.4c-0.1,0.1-0.1,0.2-0.1,0.3
		c0,0.2,0.1,0.4,0.3,0.6S29.6,13,30,13c0.2,0,0.4,0,0.6-0.1c0.1,0,0.1-0.1,0.2-0.2s0.1-0.2,0.2-0.2s0.1-0.1,0.2-0.1
		c0.1,0,0.1,0,0.2,0.1s0.1,0.1,0.1,0.2c0,0.1-0.1,0.2-0.3,0.4c-0.3,0.2-0.6,0.3-1.1,0.3c-0.4,0-0.8-0.1-1-0.3s-0.4-0.5-0.4-0.8
		c0-0.3,0.1-0.6,0.4-0.8c0.1-0.1,0.2-0.2,0.2-0.3c0.1-0.1,0.1-0.3,0.2-0.4c0-0.1,0-0.3,0-0.5V7.3c0-0.4,0-0.7-0.1-0.8
		c-0.1-0.1-0.1-0.2-0.2-0.2c-0.1,0-0.2,0.1-0.3,0.2c0,0,0,0-0.1,0.1L28.7,6.3z M30.7,7v3.3c0.5-0.4,0.9-0.8,1.2-1.2s0.3-0.8,0.3-1.2
		c0-0.5-0.2-1-0.6-1.5L30.7,7z"/>
	<path d="M34.4,4.6l1-1.1l1,1.1c-0.5,1-0.8,2.6-0.9,4.7h-0.2c-0.1-1.2-0.2-2.2-0.4-3C34.8,5.7,34.6,5.1,34.4,4.6z M35.4,11.5
		l-0.9-0.9l0.9-0.9l0.9,0.9L35.4,11.5z"/>
</g>
</svg>
