<?xml version="1.0" encoding="utf-8"?>
<!-- Generator: Adobe Illustrator 22.0.1, SVG Export Plug-In . SVG Version: 6.00 Build 0)  -->
<svg version="1.1" id="Layer_1" xmlns="http://www.w3.org/2000/svg" xmlns:xlink="http://www.w3.org/1999/xlink" x="0px" y="0px"
	 viewBox="0 0 20 10" style="enable-background:new 0 0 20 10;" xml:space="preserve">
<g>
	<path d="M6.5,5.4l0.2,1H5.3v1.2l0.4,0.2C5.8,7.9,5.9,7.9,6,7.9c0.1,0,0.1,0,0.2-0.1l0.2-0.2l0.2,0.2L5.2,9L3.8,8.1l0.4-0.5V6.4H1.4
		L1,5.3l3.3-4.4c0.3,0,0.5,0.2,0.7,0.4s0.3,0.6,0.3,1v3.1H6.5z M4.1,5.4V3c0-0.2,0-0.4-0.1-0.5S3.9,2.3,3.8,2.2L1.4,5.5h2.7V5.4z"/>
	<path d="M9.9,0.9c0.9,0.3,1.6,0.8,2.1,1.5s0.7,1.5,0.7,2.4S12.5,6.5,12,7.2c-0.5,0.7-1.1,1.3-1.9,1.9C9.5,9,9,8.7,8.6,8.4
		C8.1,8,7.8,7.6,7.6,7C7.4,6.5,7.2,5.9,7.2,5.3c0-0.8,0.2-1.7,0.7-2.5C8.5,2,9.1,1.4,9.9,0.9z M8.9,2C8.4,2.6,8.1,3.4,8.1,4.2
		c0,0.6,0.1,1.2,0.4,1.7s0.6,1,1.1,1.3c0.5,0.4,1,0.6,1.5,0.6c0.3-0.4,0.5-0.7,0.6-1.1c0.1-0.3,0.2-0.7,0.2-1.1
		c0-0.6-0.1-1.1-0.3-1.6s-0.6-0.9-1-1.3S9.5,2.2,8.9,2z"/>
	<path d="M18.7,5.4l0.2,1h-1.4v1.2l0.4,0.2c0.1,0.1,0.2,0.1,0.3,0.1c0.1,0,0.1,0,0.2-0.1l0.2-0.2l0.2,0.2L17.4,9L16,8.1l0.4-0.5V6.4
		h-2.8l-0.2-1.1l3.3-4.4c0.3,0,0.5,0.2,0.7,0.4s0.3,0.6,0.3,1v3.1C17.7,5.4,18.7,5.4,18.7,5.4z M16.3,5.4V3c0-0.2,0-0.4-0.1-0.5
		S16.1,2.3,16,2.2l-2.4,3.3h2.7V5.4z"/>
</g>
</svg>
